<svg version="1.1" xmlns="http://www.w3.org/2000/svg" xmlns:xlink="http://www.w3.org/1999/xlink" width="48" height="23.975" viewBox="0,0,48,23.975"><g transform="translate(-216,-168.0125)"><g data-paper-data="{&quot;isPaintingLayer&quot;:true}" fill-rule="nonzero" stroke="none" stroke-width="1" stroke-linecap="butt" stroke-linejoin="miter" stroke-miterlimit="10" stroke-dasharray="" stroke-dashoffset="0" style="mix-blend-mode: normal"><g><g><g fill="#f68802"><path d="M242.3,179.6875c0,-2.1 1.2,-3.4 2.9,-3.4c1.7,0 2.9,1.2 2.9,3.4c0,2.1 -1.2,3.4 -2.9,3.4c-1.7,0 -2.9,-1.3 -2.9,-3.4zM246.9,179.6875c0,-1.5 -0.7,-2.3 -1.7,-2.3c-1,0 -1.7,0.9 -1.7,2.3c0,1.5 0.7,2.4 1.7,2.4c1,0 1.7,-0.9 1.7,-2.4z"/><path d="M249.3,176.4875h2.1c1.3,0 2.3,0.4 2.3,1.6c0,0.6 -0.3,1.2 -1.1,1.4v0c0.9,0.2 1.5,0.7 1.5,1.5c0,1.3 -1.1,1.9 -2.5,1.9h-2.3zM251.3,179.1875c0.9,0 1.3,-0.3 1.3,-1c0,-0.6 -0.4,-0.8 -1.3,-0.8h-0.8v1.8zM251.5,182.0875c1,0 1.5,-0.4 1.5,-1.1c0,-0.7 -0.5,-1 -1.5,-1h-1v2.1z"/><path d="M257.9,176.2875c0.8,0 1.4,0.4 1.9,0.8l-0.6,0.7c-0.3,-0.3 -0.7,-0.5 -1.2,-0.5c-1.1,0 -1.8,0.9 -1.8,2.4c0,1.5 0.7,2.4 1.8,2.4c0.6,0 1,-0.2 1.4,-0.6l0.6,0.7c-0.5,0.6 -1.2,0.9 -2,0.9c-1.7,0 -3,-1.2 -3,-3.4c-0.1,-2.1 1.3,-3.4 2.9,-3.4z"/></g><g fill="#191919"><path d="M263,187.9875h-22c-0.6,0 -1,-0.4 -1,-1c0,-0.6 0.4,-1 1,-1h21v-12h-21c-0.6,0 -1,-0.4 -1,-1c0,-0.6 0.4,-1 1,-1h22c0.6,0 1,0.4 1,1v14c0,0.6 -0.4,1 -1,1z"/></g></g><g><g fill="#f68802"><path d="M233,171.9875c-0.1,0 -0.2,0 -0.4,-0.1l-4.6,-1.8l-4.6,1.9c-0.5,0.2 -1.1,0 -1.3,-0.6c-0.2,-0.6 0,-1.1 0.6,-1.3l5,-2c0.2,-0.1 0.5,-0.1 0.7,0l5,2c0.5,0.2 0.8,0.8 0.6,1.3c-0.2,0.4 -0.6,0.6 -1,0.6z"/></g><g fill="#f68802"><path d="M233,175.9875c-0.1,0 -0.2,0 -0.4,-0.1l-4.6,-1.8l-4.6,1.9c-0.5,0.2 -1.1,0 -1.3,-0.6c-0.2,-0.6 0,-1.1 0.6,-1.3l5,-2c0.2,-0.1 0.5,-0.1 0.7,0l5,2c0.5,0.2 0.8,0.8 0.6,1.3c-0.2,0.4 -0.6,0.6 -1,0.6z"/></g><g fill="#f68802"><path d="M233,179.9875c-0.1,0 -0.2,0 -0.4,-0.1l-4.6,-1.8l-4.6,1.9c-0.5,0.2 -1.1,0 -1.3,-0.6c-0.2,-0.6 0,-1.1 0.6,-1.3l5,-2c0.2,-0.1 0.5,-0.1 0.7,0l5,2c0.5,0.2 0.8,0.8 0.6,1.3c-0.2,0.4 -0.6,0.6 -1,0.6z"/></g><path d="M240,180.9875v2c0,0.6 -0.4,1 -1,1h-1.1c-0.5,4.7 -4.5,8 -9.9,8c-5.4,0 -9.4,-3.3 -9.9,-8h-1.1c-0.6,0 -1,-0.4 -1,-1v-2c0,-0.4 0.2,-0.7 0.6,-0.9l1.4,-0.7v-6.4c0,-0.3 0.1,-0.5 0.3,-0.7l1,-1c0.4,-0.4 1,-0.4 1.4,0c0.4,0.4 0.4,1 0,1.4l-0.7,0.7v6.6c0,0.4 -0.2,0.7 -0.6,0.9l-1.4,0.7v0.4h20v-0.4l-1.4,-0.7c-0.4,-0.2 -0.6,-0.5 -0.6,-0.9v-6.6l-0.7,-0.7c-0.4,-0.4 -0.4,-1 0,-1.4c0.4,-0.4 1,-0.4 1.4,0l1,1c0.2,0.2 0.3,0.4 0.3,0.7v6.4l1.4,0.7c0.4,0.2 0.6,0.5 0.6,0.9zM235.9,183.9875h-15.8c0.5,3.6 3.6,6 7.9,6c4.3,0 7.4,-2.4 7.9,-6z" fill="#191919"/></g></g><g fill="#000000" font-family="&quot;Helvetica Neue&quot;, Helvetica, Arial, sans-serif" font-weight="400" font-size="16" text-anchor="start"/><g fill="#000000" font-family="&quot;Helvetica Neue&quot;, Helvetica, Arial, sans-serif" font-weight="400" font-size="16" text-anchor="start"/><g fill="#000000" font-family="&quot;Helvetica Neue&quot;, Helvetica, Arial, sans-serif" font-weight="400" font-size="16" text-anchor="start"/></g></g></svg>